# Blender 4.4.1
# www.blender.org
mtllib SimpleUnitTorso.mtl
o Cube
v -0.392354 0.759881 -0.392354
v -0.392354 0.759881 0.392354
v 0.392354 0.759881 -0.392354
v 0.392354 0.759881 0.392354
v -0.392354 -1.160878 -0.392354
v -0.392354 -1.160878 0.392354
v 0.392354 -1.160878 -0.392354
v 0.392354 -1.160878 0.392354
v 0.551003 -0.588881 -0.551003
v 0.551003 -0.588881 0.551003
v -0.551003 -0.588881 -0.551003
v -0.551003 -0.588881 0.551003
vn -0.0000 1.0000 -0.0000
vn 0.9636 -0.2673 -0.0000
vn -0.0000 -1.0000 -0.0000
vn -0.9932 0.1168 -0.0000
vn -0.0000 -0.2673 -0.9636
vn -0.0000 0.1168 0.9932
vn -0.0000 -0.2673 0.9636
vn -0.0000 0.1168 -0.9932
vn -0.9636 -0.2673 -0.0000
vn 0.9932 0.1168 -0.0000
vt 0.375000 0.000000
vt 0.625000 0.000000
vt 0.625000 0.250000
vt 0.375000 0.250000
vt 0.375000 0.425551
vt 0.625000 0.425551
vt 0.625000 0.500000
vt 0.375000 0.500000
vt 0.625000 0.750000
vt 0.375000 0.750000
vt 0.375000 0.824449
vt 0.625000 0.824449
vt 0.625000 1.000000
vt 0.375000 1.000000
vt 0.300551 0.500000
vt 0.300551 0.750000
vt 0.699449 0.500000
vt 0.875000 0.500000
vt 0.875000 0.750000
vt 0.699449 0.750000
vt 0.125000 0.500000
vt 0.125000 0.750000
s 0
f 1/1/1 2/2/1 4/3/1 3/4/1
f 9/5/2 10/6/2 8/7/2 7/8/2
f 7/8/3 8/7/3 6/9/3 5/10/3
f 11/11/4 12/12/4 2/13/4 1/14/4
f 9/15/5 7/8/5 5/10/5 11/16/5
f 10/17/6 4/18/6 2/19/6 12/20/6
f 8/7/7 10/17/7 12/20/7 6/9/7
f 3/21/8 9/15/8 11/16/8 1/22/8
f 5/10/9 6/9/9 12/12/9 11/11/9
f 3/4/10 4/3/10 10/6/10 9/5/10
