# Blender 4.4.1
# www.blender.org
mtllib SimpleUnitLeg.mtl
o Cube.001
v -0.111876 0.111876 -0.111876
v -0.111876 0.111876 0.111876
v 0.111876 0.111876 -0.111876
v 0.111876 0.111876 0.111876
v -0.111876 -0.111876 -0.111876
v -0.111876 -0.111876 0.111876
v 0.111876 -0.111876 -0.111876
v 0.111876 -0.111876 0.111876
v -0.150871 -0.098702 -0.471743
v 0.072880 -0.098702 -0.471743
v -0.150871 -0.322454 -0.471743
v 0.072880 -0.322454 -0.471743
v -0.149627 0.220615 -0.778983
v 0.074124 0.220615 -0.778983
v -0.149627 -0.003136 -0.778983
v 0.074124 -0.003136 -0.778983
vn -0.0000 1.0000 -0.0000
vn 1.0000 -0.0000 -0.0000
vn -0.0000 -1.0000 -0.0000
vn -1.0000 -0.0000 -0.0000
vn -0.0000 -0.8631 0.5050
vn -0.0000 -0.0000 1.0000
vn -0.0000 -0.6933 -0.7206
vn -0.9942 -0.0000 0.1077
vn 0.9942 -0.0000 -0.1077
vn -0.0000 0.8631 -0.5050
vn -0.0000 -0.0000 -1.0000
vn -0.0000 0.6933 0.7206
vn -1.0000 -0.0000 -0.0041
vn 1.0000 -0.0000 0.0041
vt 0.375000 0.000000
vt 0.625000 0.000000
vt 0.625000 0.250000
vt 0.375000 0.250000
vt 0.625000 0.500000
vt 0.375000 0.500000
vt 0.625000 0.750000
vt 0.375000 0.750000
vt 0.625000 1.000000
vt 0.375000 1.000000
vt 0.875000 0.500000
vt 0.875000 0.750000
vt 0.125000 0.500000
vt 0.125000 0.750000
s 0
f 1/1/1 2/2/1 4/3/1 3/4/1
f 3/4/2 4/3/2 8/5/2 7/6/2
f 7/6/3 8/5/3 6/7/3 5/8/3
f 5/8/4 6/7/4 2/9/4 1/10/4
f 7/6/5 5/8/5 11/8/5 12/6/5
f 8/5/6 4/11/6 2/12/6 6/7/6
f 12/6/7 11/8/7 15/8/7 16/6/7
f 5/8/8 1/10/8 9/10/8 11/8/8
f 3/4/9 7/6/9 12/6/9 10/4/9
f 1/1/10 3/4/10 10/4/10 9/1/10
f 14/13/11 16/6/11 15/8/11 13/14/11
f 9/1/12 10/4/12 14/4/12 13/1/12
f 11/8/13 9/10/13 13/10/13 15/8/13
f 10/4/14 12/6/14 16/6/14 14/4/14
